<?xml version="1.0" encoding="UTF-8"?>
<!--Generator: Apple Native CoreSVG 326-->
<!DOCTYPE svg
PUBLIC "-//W3C//DTD SVG 1.1//EN"
       "http://www.w3.org/Graphics/SVG/1.1/DTD/svg11.dtd">
<svg version="1.1" xmlns="http://www.w3.org/2000/svg" xmlns:xlink="http://www.w3.org/1999/xlink" viewBox="0 0 21.9609 21.6211">
 <g>
  <rect height="21.6211" opacity="0" width="21.9609" x="0" y="0"/>
  <path d="M20.2383 1.38281C19.043 0.1875 17.3555 0 15.3516 0L6.22266 0C4.25391 0 2.56641 0.1875 1.37109 1.38281C0.175781 2.57812 0 4.25391 0 6.22266L0 15.3516C0 17.3555 0.175781 19.0312 1.37109 20.2266C2.56641 21.4219 4.25391 21.6094 6.24609 21.6094L15.3516 21.6094C17.3555 21.6094 19.043 21.4219 20.2383 20.2266C21.4336 19.0312 21.6094 17.3555 21.6094 15.3516L21.6094 6.24609C21.6094 4.24219 21.4336 2.57812 20.2383 1.38281ZM19.7227 5.92969L19.7227 15.6797C19.7227 16.8867 19.5703 18.1406 18.8555 18.8438C18.1523 19.5586 16.8867 19.7227 15.6797 19.7227L5.92969 19.7227C4.72266 19.7227 3.45703 19.5586 2.74219 18.8438C2.03906 18.1406 1.88672 16.8867 1.88672 15.6797L1.88672 5.96484C1.88672 4.72266 2.03906 3.46875 2.74219 2.75391C3.45703 2.05078 4.73438 1.88672 5.96484 1.88672L15.6797 1.88672C16.8867 1.88672 18.1523 2.05078 18.8555 2.76562C19.5703 3.46875 19.7227 4.72266 19.7227 5.92969Z" fill="black" fill-opacity="0.85"/>
  <path d="M6.82031 15.7617C7.07812 15.7617 7.3125 15.6562 7.48828 15.4688L10.8047 12.1406L14.1445 15.4688C14.3203 15.6445 14.543 15.7617 14.8125 15.7617C15.3398 15.7617 15.7617 15.3398 15.7617 14.8125C15.7617 14.543 15.6562 14.332 15.4688 14.1445L12.1406 10.8164L15.4805 7.46484C15.6797 7.26562 15.7734 7.06641 15.7734 6.80859C15.7734 6.29297 15.3516 5.87109 14.8242 5.87109C14.5781 5.87109 14.3789 5.96484 14.1797 6.16406L10.8047 9.50391L7.46484 6.17578C7.28906 5.98828 7.07812 5.89453 6.82031 5.89453C6.29297 5.89453 5.87109 6.30469 5.87109 6.82031C5.87109 7.07812 5.97656 7.30078 6.16406 7.47656L9.49219 10.8164L6.16406 14.1562C5.97656 14.332 5.87109 14.5547 5.87109 14.8125C5.87109 15.3398 6.29297 15.7617 6.82031 15.7617Z" fill="black" fill-opacity="0.85"/>
 </g>
</svg>
