<?xml version="1.0" encoding="UTF-8"?>
<!--Generator: Apple Native CoreSVG 326-->
<!DOCTYPE svg
PUBLIC "-//W3C//DTD SVG 1.1//EN"
       "http://www.w3.org/Graphics/SVG/1.1/DTD/svg11.dtd">
<svg version="1.1" xmlns="http://www.w3.org/2000/svg" xmlns:xlink="http://www.w3.org/1999/xlink" viewBox="0 0 28.459 27.9649">
 <g>
  <rect height="27.9649" opacity="0" width="28.459" x="0" y="0"/>
  <path d="M18.7529 5.86722L7.38574 5.86722C6.21387 5.86722 5.55762 6.50003 5.55762 7.71878L5.55762 21.0196C5.55762 22.2383 6.21387 22.8594 7.38574 22.8594L20.7334 22.8594C21.9053 22.8594 22.5498 22.2383 22.5498 21.0196L22.5498 9.75549L24.4365 7.86534L24.4365 21.1133C24.4365 23.5391 23.2061 24.7461 20.7568 24.7461L7.35059 24.7461C4.91309 24.7461 3.6709 23.5391 3.6709 21.1133L3.6709 7.61331C3.6709 5.19925 4.91309 3.9805 7.35059 3.9805L20.6396 3.9805Z" fill="black" fill-opacity="0.85"/>
  <path d="M11.6162 17.1524L13.9014 16.1563L24.8467 5.22269L23.2412 3.64066L12.3076 14.5743L11.2529 16.7774C11.1592 16.9766 11.3936 17.2461 11.6162 17.1524ZM25.7139 4.36722L26.5576 3.50003C26.9561 3.07816 26.9561 2.51566 26.5576 2.12894L26.2881 1.84769C25.9248 1.48441 25.3506 1.53128 24.9639 1.90628L24.1084 2.75003Z" fill="black" fill-opacity="0.85"/>
 </g>
</svg>
