<svg width="24" height="24" viewBox="0 0 24 24" fill="none" xmlns="http://www.w3.org/2000/svg">
<path fill-rule="evenodd" clip-rule="evenodd" d="M19.5 10.5H4.5V12C4.5 13.928 4.50319 15.2231 4.63307 16.1892C4.75715 17.1121 4.9716 17.5071 5.23223 17.7678C5.49287 18.0284 5.88786 18.2428 6.81078 18.3669C7.77686 18.4968 9.07198 18.5 11 18.5H13C14.928 18.5 16.2231 18.4968 17.1892 18.3669C18.1121 18.2428 18.5071 18.0284 18.7678 17.7678C19.0284 17.5071 19.2428 17.1121 19.3669 16.1892C19.4968 15.2231 19.5 13.928 19.5 12V10.5ZM3 9V12C3 15.7712 3 17.6569 4.17157 18.8284C5.34315 20 7.22876 20 11 20H13C16.7712 20 18.6569 20 19.8284 18.8284C21 17.6569 21 15.7712 21 12V9H3Z" fill="#566DCD"/>
<path d="M3 11C3 9.13623 3 8.20435 3.30448 7.46927C3.71046 6.48915 4.48915 5.71046 5.46927 5.30448C6.20435 5 7.13623 5 9 5H15C16.8638 5 17.7956 5 18.5307 5.30448C19.5108 5.71046 20.2895 6.48915 20.6955 7.46927C21 8.20435 21 9.13623 21 11H3Z" fill="#566DCD"/>
<path d="M7.5 11L7.55109 11.1342C7.95717 12.2006 8.7994 13.0428 9.86583 13.4489L10 13.5L9.86583 13.5511C8.7994 13.9572 7.95717 14.7994 7.55109 15.8658L7.5 16L7.44891 15.8658C7.04283 14.7994 6.2006 13.9572 5.13417 13.5511L5 13.5L5.13417 13.4489C6.2006 13.0428 7.04283 12.2006 7.44891 11.1342L7.5 11Z" fill="#566DCD"/>
<path d="M8.5 3.75C8.5 3.33579 8.16421 3 7.75 3C7.33579 3 7 3.33579 7 3.75V7.25C7 7.66421 7.33579 8 7.75 8C8.16421 8 8.5 7.66421 8.5 7.25V3.75Z" fill="#566DCD"/>
<path d="M17 3.75C17 3.33579 16.6642 3 16.25 3C15.8358 3 15.5 3.33579 15.5 3.75V7.25C15.5 7.66421 15.8358 8 16.25 8C16.6642 8 17 7.66421 17 7.25V3.75Z" fill="#566DCD"/>
<path fill-rule="evenodd" clip-rule="evenodd" d="M19 11H5V9.5H19V11Z" fill="#566DCD"/>
</svg>
