<?xml version="1.0" encoding="UTF-8"?>
<!--Generator: Apple Native CoreSVG 232.5-->
<!DOCTYPE svg
PUBLIC "-//W3C//DTD SVG 1.1//EN"
       "http://www.w3.org/Graphics/SVG/1.1/DTD/svg11.dtd">
<svg version="1.1" xmlns="http://www.w3.org/2000/svg" xmlns:xlink="http://www.w3.org/1999/xlink" width="21.9258" height="21.8555">
 <g>
  <rect height="21.8555" opacity="0" width="21.9258" x="0" y="0"/>
  <path d="M3.67969 21.8555L17.8945 21.8555C20.3555 21.8555 21.5742 20.6484 21.5742 18.2344L21.5742 3.91406C21.5742 1.5 20.3555 0.28125 17.8945 0.28125L3.67969 0.28125C1.23047 0.28125 0 1.5 0 3.91406L0 18.2344C0 20.6484 1.23047 21.8555 3.67969 21.8555ZM3.70312 19.9688C2.53125 19.9688 1.88672 19.3477 1.88672 18.1289L1.88672 4.01953C1.88672 2.80078 2.53125 2.16797 3.70312 2.16797L17.8711 2.16797C19.0312 2.16797 19.6875 2.80078 19.6875 4.01953L19.6875 18.1289C19.6875 19.3477 19.0312 19.9688 17.8711 19.9688Z" fill="#000000" fill-opacity="0.85"/>
  <path d="M7.76953 17.9531L13.8281 17.9531C14.6133 17.9531 15.0938 17.5195 15.1289 16.7227L15.5273 7.46484L16.4531 7.46484C16.7344 7.46484 16.9453 7.23047 16.957 6.96094C16.9688 6.69141 16.7344 6.45703 16.4531 6.45703L13.6523 6.45703L13.6523 5.50781C13.6523 4.54688 12.9961 3.9375 11.9766 3.9375L9.60938 3.9375C8.57812 3.9375 7.94531 4.54688 7.94531 5.50781L7.94531 6.45703L5.12109 6.45703C4.85156 6.45703 4.61719 6.69141 4.61719 6.96094C4.61719 7.23047 4.85156 7.46484 5.12109 7.46484L6.08203 7.46484L6.49219 16.7227C6.51562 17.5195 6.97266 17.9531 7.76953 17.9531ZM8.77734 16.1484C8.54297 16.1484 8.35547 15.9844 8.35547 15.75L8.10938 8.90625C8.10938 8.64844 8.27344 8.48438 8.54297 8.48438C8.77734 8.48438 8.96484 8.64844 8.96484 8.89453L9.1875 15.7383C9.1875 15.9727 9.04688 16.1484 8.77734 16.1484ZM10.7812 16.1367C10.5234 16.1367 10.3477 15.9727 10.3477 15.7383L10.3477 8.89453C10.3477 8.64844 10.5117 8.48438 10.7812 8.48438C11.0391 8.48438 11.2148 8.64844 11.2148 8.89453L11.2148 15.7383C11.2148 15.9727 11.0391 16.1367 10.7812 16.1367ZM12.7734 16.1484C12.5156 16.1484 12.3633 15.9727 12.3633 15.7383L12.5859 8.89453C12.5977 8.64844 12.7734 8.48438 13.0195 8.48438C13.2891 8.48438 13.4414 8.64844 13.4414 8.90625L13.1953 15.75C13.1953 15.9844 13.0078 16.1484 12.7734 16.1484ZM9.12891 6.45703L9.12891 5.57812C9.12891 5.27344 9.35156 5.07422 9.66797 5.07422L11.8945 5.07422C12.2109 5.07422 12.4336 5.27344 12.4336 5.57812L12.4336 6.45703Z" fill="#000000" fill-opacity="0.85"/>
 </g>
</svg>
